<?xml version="1.0" ?><svg data-name="Layer 1" id="Layer_1" viewBox="0 0 64 64" xmlns="http://www.w3.org/2000/svg"><defs><style>
      .cls-1 {
        fill: #e7ecef;
      }

      .cls-2 {
        fill: #8b8c89;
      }

      .cls-3 {
        fill: #bc6c25;
      }

      .cls-4 {
        fill: #a3cef1;
      }

      .cls-5 {
        fill: #dda15e;
      }

      .cls-6 {
        fill: #6096ba;
      }

      .cls-7 {
        fill: #274c77;
      }
    </style></defs><path class="cls-5" d="M36.58,22.04l-3,1.29c-1.01,.43-2.15,.43-3.15,0l-3-1.29c-1.47-.63-2.42-2.08-2.42-3.68v-5.36c0-3.31,2.69-6,6-6h2c3.31,0,6,2.69,6,6v5.36c0,1.6-.95,3.05-2.42,3.68Z"/><path class="cls-7" d="M22,14.73c-.29,.17-.64,.27-1,.27-1.1,0-2-.9-2-2s.9-2,2-2c.42,0,.81,.13,1.14,.36"/><path class="cls-7" d="M42,14.73c.29,.17,.64,.27,1,.27,1.1,0,2-.9,2-2s-.9-2-2-2c-.42,0-.81,.13-1.14,.36"/><path class="cls-3" d="M35,25c0,1.66-1.34,3-3,3s-3-1.34-3-3v-2.29l1.42,.61c1.01,.44,2.15,.44,3.16,0l1.42-.61v2.29Z"/><path class="cls-7" d="M16,36.59c-.61,.26-1.29,.41-2,.41-2.76,0-5-2.24-5-5s2.24-5,5-5c1.64,0,3.09,.79,4,2.01,.67-.91,1.5-1.69,2.44-2.32-.25-.1-.48-.25-.68-.45-.49-.48-.67-1.15-.57-1.78-1.04-.72-2.24-1.22-3.53-1.46-.37,.52-.97,.86-1.66,.86s-1.29-.34-1.66-.86c-1.29,.24-2.49,.74-3.53,1.46,.1,.63-.08,1.3-.57,1.78-.48,.49-1.15,.67-1.78,.57-.72,1.04-1.22,2.24-1.46,3.53,.52,.37,.86,.97,.86,1.66s-.34,1.29-.86,1.66c.24,1.29,.74,2.49,1.46,3.53,.63-.1,1.3,.08,1.78,.57,.49,.48,.67,1.15,.57,1.78,1.04,.72,2.24,1.22,3.53,1.46,.37-.52,.97-.86,1.66-.86s1.29,.34,1.66,.86c1.29-.24,2.49-.74,3.53-1.46-.03-.18-.03-.36-.01-.54h-3.18v-2.41Z"/><path class="cls-7" d="M46,29.01c.91-1.22,2.36-2.01,4-2.01,2.76,0,5,2.24,5,5s-2.24,5-5,5c-.71,0-1.39-.15-2-.41v2.41h-3.18c.02,.18,.02,.36-.01,.54,1.04,.72,2.24,1.22,3.53,1.46,.37-.52,.97-.86,1.66-.86s1.29,.34,1.66,.86c1.29-.24,2.49-.74,3.53-1.46-.1-.63,.08-1.3,.57-1.78,.48-.49,1.15-.67,1.78-.57,.72-1.04,1.22-2.24,1.46-3.53-.52-.37-.86-.97-.86-1.66s.34-1.29,.86-1.66c-.24-1.29-.74-2.49-1.46-3.53-.63,.1-1.3-.08-1.78-.57-.49-.48-.67-1.15-.57-1.78-1.04-.72-2.24-1.22-3.53-1.46-.37,.52-.97,.86-1.66,.86s-1.29-.34-1.66-.86c-1.29,.24-2.49,.74-3.53,1.46,.1,.63-.08,1.3-.57,1.78-.2,.2-.43,.35-.68,.45,.94,.63,1.77,1.41,2.44,2.32Z"/><path class="cls-2" d="M19.18,39c-.02,.18-.02,.36,.01,.54-1.04,.72-2.24,1.22-3.53,1.46-.37-.51-.96-.85-1.64-.86-.01,.03-.02,.06-.02,.09,1.06,.48,1.79,1.54,1.79,2.77s-.73,2.29-1.79,2.77c.2,1.33,.55,2.61,1.02,3.83,1.16-.11,2.33,.43,2.95,1.5,.61,1.07,.5,2.36-.18,3.31,.83,1.03,1.77,1.97,2.8,2.8,.95-.68,2.24-.79,3.31-.18,1.07,.62,1.61,1.79,1.5,2.95,1.22,.47,2.5,.82,3.83,1.02,.48-1.06,1.54-1.79,2.77-1.79s2.29,.73,2.77,1.79c1.33-.2,2.61-.55,3.83-1.02-.11-1.16,.43-2.33,1.5-2.95,1.07-.61,2.36-.5,3.31,.18,1.03-.83,1.97-1.77,2.8-2.8-.68-.95-.79-2.24-.18-3.31,.62-1.07,1.79-1.61,2.95-1.5,.47-1.22,.82-2.5,1.02-3.83-1.06-.48-1.79-1.54-1.79-2.77s.73-2.29,1.79-2.77c0-.03-.01-.06-.02-.09-.68,.01-1.27,.35-1.64,.86-1.29-.24-2.49-.74-3.53-1.46,.03-.18,.03-.36,.01-.54h-1.51c.45,1.25,.69,2.6,.69,4,0,6.63-5.37,12-12,12s-12-5.37-12-12c0-1.4,.24-2.75,.69-4h-1.51Z"/><path class="cls-4" d="M43.31,39c.45,1.25,.69,2.6,.69,4,0,6.63-5.37,12-12,12s-12-5.37-12-12c0-1.4,.24-2.75,.69-4"/><path class="cls-6" d="M35,25c0,1.66-1.34,3-3,3s-3-1.34-3-3h-3c-5.52,0-10,4.48-10,10v4H48v-4c0-5.52-4.48-10-10-10h-3Z"/><path class="cls-4" d="M18,29.01c-1.26,1.67-2,3.74-2,5.99v1.59c-.61,.26-1.29,.41-2,.41-2.76,0-5-2.24-5-5s2.24-5,5-5c1.64,0,3.09,.79,4,2.01Z"/><path class="cls-4" d="M48,36.59v-1.59c0-2.25-.74-4.32-2-5.99,.91-1.22,2.36-2.01,4-2.01,2.76,0,5,2.24,5,5s-2.24,5-5,5c-.71,0-1.39-.15-2-.41Z"/><path class="cls-7" d="M39,13c-.52-.65-1.03-1.19-1.52-1.62-1.92-1.72-4.78-1.49-6.7,.24-2.31,2.08-5.79,1.39-5.79,1.39,0-3.31,2.69-6,6-6h2c3.31,0,6,2.69,6,6Z"/><path class="cls-1" d="M39,17.6v-4.6c0-3.31-2.69-6-6-6h-2c-3.31,0-6,2.69-6,6v4h-2c-.55,0-1-.45-1-1v-3c0-5.52,4.48-10,10-10,2.76,0,5.26,1.12,7.07,2.93s2.93,4.31,2.93,7.07v3.18c0,.48-.34,.89-.8,.98l-2.2,.44Z"/><path d="M4.42,32.85c-.32,.23-.47,.61-.4,1,.27,1.43,.81,2.75,1.62,3.92,.22,.32,.59,.48,.98,.42,.34-.06,.68,.05,.92,.3,.23,.23,.34,.56,.28,.91-.06,.38,.1,.76,.42,.98,1.17,.81,2.49,1.35,3.92,1.62,.38,.08,.77-.09,1-.4,.14-.2,.34-.3,.56-.36,.65,.36,1.07,1.03,1.07,1.78,0,.8-.47,1.53-1.2,1.86-.41,.19-.64,.62-.58,1.06,.21,1.36,.57,2.72,1.08,4.04,.16,.42,.57,.68,1.03,.64,.82-.08,1.59,.31,1.99,1,.4,.7,.35,1.57-.12,2.23-.26,.37-.25,.86,.04,1.21,.88,1.09,1.87,2.08,2.95,2.95,.35,.28,.84,.3,1.21,.03,.66-.47,1.54-.52,2.23-.13,.7,.4,1.08,1.17,1.01,1.99-.04,.45,.22,.87,.64,1.03,1.32,.51,2.68,.87,4.04,1.08,.45,.07,.87-.17,1.06-.58,.33-.73,1.06-1.2,1.86-1.2s1.53,.47,1.86,1.2c.16,.36,.52,.59,.91,.59,.05,0,.1,0,.15-.01,1.36-.2,2.72-.57,4.04-1.08,.42-.16,.68-.58,.64-1.03-.08-.82,.31-1.59,1-1.99,.7-.4,1.57-.35,2.23,.12,.37,.26,.86,.25,1.21-.03,1.08-.87,2.08-1.87,2.95-2.95,.28-.35,.3-.84,.04-1.21-.47-.66-.52-1.54-.13-2.23,.4-.7,1.18-1.09,1.99-1.01,.45,.04,.87-.22,1.03-.64,.51-1.32,.87-2.68,1.08-4.04,.07-.44-.17-.88-.58-1.06-.73-.33-1.2-1.06-1.2-1.86,0-.75,.42-1.42,1.07-1.78,.22,.06,.42,.16,.56,.36,.19,.27,.49,.42,.81,.42,.06,0,.12,0,.18-.02,1.43-.27,2.75-.81,3.92-1.62,.32-.22,.48-.6,.42-.98-.06-.35,.05-.68,.3-.92,.23-.23,.56-.34,.91-.28,.38,.06,.76-.1,.98-.42,.81-1.17,1.35-2.49,1.62-3.92,.07-.38-.09-.77-.4-1-.28-.2-.44-.51-.44-.85s.16-.65,.44-.85c.32-.23,.47-.61,.4-1-.27-1.43-.81-2.75-1.62-3.92-.22-.32-.6-.48-.98-.42-.34,.05-.68-.05-.92-.3-.23-.23-.34-.56-.28-.91,.06-.38-.1-.76-.42-.98-1.17-.81-2.49-1.35-3.92-1.62-.38-.07-.77,.09-1,.4-.4,.56-1.29,.56-1.69,0-.22-.32-.62-.48-1-.4-1.43,.27-2.75,.81-3.92,1.62-.32,.22-.48,.6-.42,.98,.05,.34-.05,.66-.28,.9-1.63-.96-3.52-1.52-5.55-1.52h-2v-.63l.97-.42c1.82-.78,3-2.56,3.03-4.54l1.4-.28c.93-.19,1.61-1.01,1.61-1.96v-.18c1.65,0,3-1.35,3-3s-1.35-3-3-3c-.14,0-.28,.01-.42,.03-1.3-4.63-5.55-8.03-10.58-8.03s-9.28,3.41-10.58,8.03c-.14-.02-.28-.03-.42-.03-1.65,0-3,1.35-3,3s1.35,3,3,3c0,1.1,.9,2,2,2h1v.36c0,2,1.19,3.81,3.03,4.6l.97,.42v.63h-2c-2.02,0-3.92,.56-5.55,1.52-.23-.23-.33-.56-.28-.9,.06-.38-.1-.76-.42-.98-1.17-.81-2.49-1.35-3.92-1.62-.38-.07-.77,.09-1,.4-.4,.56-1.29,.56-1.69,0-.23-.32-.62-.48-1-.4-1.43,.27-2.75,.81-3.92,1.62-.32,.22-.48,.6-.42,.98,.06,.35-.05,.68-.3,.92-.23,.23-.56,.34-.91,.28-.38-.06-.76,.1-.98,.42-.81,1.17-1.35,2.49-1.62,3.92-.07,.38,.09,.77,.4,1,.28,.2,.44,.51,.44,.85s-.16,.65-.44,.85ZM43,12c.55,0,1,.45,1,1s-.45,1-1,1v-1c0-.33-.02-.66-.05-.99,.02,0,.03,0,.05,0Zm-22,1v1c-.55,0-1-.45-1-1s.45-1,1-1c.02,0,.03,0,.05,0-.03,.33-.05,.66-.05,.99Zm27.28,35.61c-1.29,.13-2.46,.86-3.12,2-.65,1.14-.7,2.52-.16,3.7-.53,.6-1.09,1.17-1.7,1.7-1.18-.53-2.56-.48-3.7,.17-1.13,.66-1.86,1.83-1.99,3.11-.77,.26-1.54,.47-2.32,.62-.75-1.04-1.97-1.69-3.28-1.69s-2.53,.64-3.28,1.69c-.78-.15-1.56-.36-2.32-.62-.13-1.29-.86-2.46-2-3.12-1.14-.65-2.52-.7-3.7-.16-.6-.53-1.17-1.09-1.7-1.7,.53-1.18,.49-2.56-.17-3.7-.66-1.13-1.83-1.86-3.11-1.99-.26-.77-.47-1.54-.62-2.32,1.04-.75,1.69-1.97,1.69-3.28,0-.41-.07-.82-.19-1.2,.92-.24,1.79-.61,2.6-1.1-.14,.75-.21,1.52-.21,2.3,0,7.17,5.83,13,13,13s13-5.83,13-13c0-.78-.07-1.54-.21-2.3,.81,.49,1.68,.85,2.6,1.1-.12,.38-.19,.79-.19,1.2,0,1.31,.64,2.53,1.69,3.28-.15,.78-.36,1.56-.62,2.32ZM15,35v.86c-.33,.08-.66,.14-1,.14-2.21,0-4-1.79-4-4s1.79-4,4-4c1.04,0,1.99,.41,2.73,1.11-1.09,1.71-1.73,3.72-1.73,5.89Zm6,8c0-1.03,.15-2.03,.43-3h21.15c.28,.97,.43,1.97,.43,3,0,6.07-4.93,11-11,11s-11-4.93-11-11Zm26.27-13.89c.73-.7,1.69-1.11,2.73-1.11,2.21,0,4,1.79,4,4s-1.79,4-4,4c-.34,0-.67-.06-1-.14v-.86c0-2.17-.64-4.19-1.73-5.89Zm-1.44-4.12c.67-.4,1.39-.7,2.16-.89,1.1,.97,2.91,.97,4.01,0,.77,.19,1.49,.49,2.16,.89,.05,.74,.36,1.44,.88,1.95,.52,.53,1.22,.84,1.96,.89,.4,.67,.7,1.39,.89,2.16-.48,.55-.76,1.26-.76,2.01s.28,1.46,.76,2.01c-.19,.77-.49,1.49-.89,2.16-.74,.05-1.44,.36-1.95,.88-.53,.52-.84,1.22-.89,1.96-.67,.4-1.39,.7-2.16,.89-.83-.73-2.05-.91-3.08-.54,.04-.11,.07-.23,.07-.36v-1.09c.33,.05,.66,.09,1,.09,3.31,0,6-2.69,6-6s-2.69-6-6-6c-1.49,0-2.88,.54-3.97,1.51-.27-.29-.56-.57-.86-.83,.38-.48,.62-1.07,.66-1.69ZM24,13v3h-1v-3c0-4.96,4.04-9,9-9s9,4.04,9,9v3.18l-1,.2v-3.38c0-3.86-3.14-7-7-7h-2c-3.86,0-7,3.14-7,7Zm12.77-3.25c-2.11-.97-4.74-.61-6.65,1.12-1.26,1.13-2.99,1.27-4.03,1.24,.42-2.33,2.46-4.1,4.91-4.1h2c1.51,0,2.85,.69,3.77,1.75Zm-8.95,11.37c-1.1-.47-1.82-1.56-1.82-2.76v-4.26c.12,0,.23,.01,.37,.01,1.4,0,3.46-.29,5.09-1.76,1.6-1.44,3.91-1.54,5.36-.23,.39,.35,.79,.78,1.18,1.25v3.41l-6.2,1.24,.39,1.96,5.77-1.15c-.16,1.01-.82,1.88-1.78,2.29h0s-3,1.29-3,1.29c-.75,.32-1.61,.32-2.36,0l-3-1.29Zm6.18,3.11v.77c0,1.1-.9,2-2,2s-2-.9-2-2v-.77h.03c.62,.28,1.3,.42,1.97,.42s1.34-.13,1.97-.4h.03Zm-8,1.76h2.13c.44,1.72,2.01,3,3.87,3s3.43-1.28,3.87-3h2.13c4.96,0,9,4.04,9,9v3H17v-3c0-4.96,4.04-9,9-9Zm-19.9,3.99c.19-.77,.49-1.49,.89-2.16,.74-.05,1.44-.36,1.95-.88,.53-.52,.84-1.22,.89-1.96,.67-.4,1.39-.7,2.16-.89,1.1,.97,2.91,.97,4.01,0,.77,.19,1.49,.49,2.16,.89,.04,.62,.27,1.21,.66,1.69-.3,.26-.59,.54-.86,.83-1.08-.97-2.48-1.51-3.97-1.51-3.31,0-6,2.69-6,6s2.69,6,6,6c.34,0,.67-.03,1-.09v1.09c0,.13,.03,.25,.07,.36-1.03-.36-2.25-.18-3.08,.54-.77-.19-1.49-.49-2.16-.89-.05-.74-.36-1.44-.88-1.95-.52-.53-1.22-.84-1.96-.89-.4-.67-.7-1.39-.89-2.16,.48-.55,.76-1.26,.76-2.01s-.28-1.46-.76-2.01Z"/></svg>