
        <svg xmlns="http://www.w3.org/2000/svg" xmlns:xlink="http://www.w3.org/1999/xlink" version="1.1" width="3139.7050815463176" 
        height="768.3779485047462" viewBox="0 0 3139.7050815463176 768.3779485047462">
			
			<g transform="scale(6.985254077315874) translate(10, 10)">
				<defs id="SvgjsDefs1001"></defs><g id="SvgjsG1007" featureKey="symbolGroupContainer" transform="matrix(1,0,0,1,0,0)" fill="#ff004f"><rect y="0" height="1" width="1" opacity="0"></rect><rect y="85" width="63" height="5"></rect></g><g id="SvgjsG1008" featureKey="symbolFeature-0" transform="matrix(0.8094357000610493,0,0,0.8094357000610493,-8.970976011988713,4.251387724038475)" fill="#ff004f"><path xmlns="http://www.w3.org/2000/svg" d="M85.416,15.75H14.583c-1.93,0-3.5,1.57-3.5,3.5v48.666c0,1.93,1.57,3.5,3.5,3.5h28.761l-0.583,6.258  c-0.025,0.366-0.425,3.576-6.502,3.576c-0.829,0-1.5,0.672-1.5,1.5s0.671,1.5,1.5,1.5h27.48c0.828,0,1.5-0.672,1.5-1.5  s-0.672-1.5-1.5-1.5c-6.077,0-6.477-3.21-6.507-3.64l-0.577-6.194h28.76c1.93,0,3.5-1.57,3.5-3.5V19.25  C88.916,17.32,87.346,15.75,85.416,15.75z M44.298,81.25c1.367-1.648,1.457-3.36,1.456-3.36l0.604-6.474h7.286l0.598,6.384  c0.001,0.033,0.088,1.782,1.468,3.45H44.298z M85.916,67.916c0,0.275-0.225,0.5-0.5,0.5H14.583c-0.276,0-0.5-0.225-0.5-0.5v-5.437  h71.833V67.916z M85.916,59.479H14.083V19.25c0-0.276,0.224-0.5,0.5-0.5h70.833c0.275,0,0.5,0.224,0.5,0.5V59.479z M60.935,27.42  c-0.567-0.603-1.517-0.63-2.12-0.062c-0.603,0.568-0.63,1.518-0.062,2.12l10.073,10.675l-10.073,10.67  c-0.568,0.602-0.541,1.552,0.062,2.121c0.289,0.273,0.659,0.409,1.029,0.409c0.398,0,0.796-0.158,1.091-0.471l11.045-11.699  c0.546-0.578,0.546-1.481,0-2.059L60.935,27.42z M41.188,27.359c-0.603-0.569-1.553-0.542-2.121,0.061l-11.046,11.7  c-0.545,0.578-0.545,1.481,0,2.06l11.046,11.703c0.295,0.313,0.692,0.471,1.091,0.471c0.369,0,0.739-0.136,1.029-0.409  c0.602-0.568,0.63-1.518,0.061-2.121L31.174,40.15l10.074-10.67C41.817,28.877,41.79,27.928,41.188,27.359z M54.971,27.203  c-0.773-0.296-1.641,0.089-1.938,0.863l-8.866,23.098c-0.297,0.773,0.089,1.641,0.863,1.938c0.177,0.067,0.358,0.1,0.537,0.1  c0.603,0,1.172-0.366,1.401-0.963l8.866-23.097C56.131,28.368,55.744,27.5,54.971,27.203z"></path></g><g id="SvgjsG1009" featureKey="sloganFeature-0" transform="matrix(0.9063443830217166,0,0,0.9063443830217166,82.27492496897918,54.359516862651695)" fill="#ff004f"><path d="M3.4 15.5 q-1.12 -0.32 -1.75 -0.95 t-0.63 -1.89 q0 -1.52 1.09 -2.38 t2.97 -0.86 q0.78 0 1.54 0.14 t1.54 0.42 q-0.04 0.52 -0.2 1.08 t-0.38 0.98 q-0.48 -0.2 -1.06 -0.35 t-1.24 -0.15 t-1.04 0.21 t-0.38 0.66 t0.27 0.63 t0.77 0.34 l1.14 0.34 q0.56 0.16 1.01 0.39 t0.77 0.57 t0.5 0.84 t0.18 1.23 t-0.31 1.37 t-0.9 1.11 t-1.43 0.74 t-1.9 0.27 q-0.48 0 -0.88 -0.03 t-0.77 -0.1 t-0.73 -0.17 t-0.78 -0.26 q0.04 -0.54 0.19 -1.09 t0.39 -1.07 q0.66 0.26 1.25 0.39 t1.23 0.13 q0.28 0 0.61 -0.05 t0.61 -0.18 t0.47 -0.34 t0.19 -0.55 q0 -0.48 -0.29 -0.69 t-0.81 -0.37 z M14.98 20.24 q-1.26 0 -2.19 -0.41 t-1.54 -1.14 t-0.92 -1.71 t-0.31 -2.12 t0.31 -2.14 t0.92 -1.73 t1.54 -1.15 t2.19 -0.42 t2.2 0.42 t1.56 1.15 t0.92 1.73 t0.3 2.14 t-0.3 2.12 t-0.92 1.71 t-1.56 1.14 t-2.2 0.41 z M14.98 18.08 q1.12 0 1.61 -0.83 t0.49 -2.39 t-0.49 -2.39 t-1.6 -0.83 t-1.6 0.83 t-0.49 2.39 t0.49 2.39 t1.59 0.83 z M22.880000000000003 11.82 l-1.64 0 q-0.06 -0.32 -0.08 -0.58 t-0.02 -0.53 t0.02 -0.51 t0.08 -0.54 l1.64 0 l0 -0.5 q0 -0.96 0.29 -1.71 t0.83 -1.26 t1.29 -0.78 t1.65 -0.27 q0.6 0 1.01 0.05 t0.89 0.19 q-0.04 0.66 -0.13 1.19 t-0.29 1.05 l-0.46 -0.1 q-0.24 -0.04 -0.64 -0.04 q-0.7 0 -1.14 0.33 t-0.48 1.41 l0 0.44 l2.4 0 q0.06 0.32 0.08 0.58 t0.02 0.53 t-0.02 0.51 t-0.08 0.54 l-2.4 0 l0 8.18 q-0.72 0.12 -1.41 0.12 t-1.41 -0.12 l0 -8.18 z M30.4 11.82 l-1.3 0 l-0.1 -0.4 l3.74 -4.78 l0.46 0 l0 3.02 l2.42 0 q0.06 0.3 0.08 0.54 t0.02 0.51 t-0.02 0.53 t-0.08 0.58 l-2.42 0 l0 4.06 q0 0.62 0.1 1 t0.29 0.6 t0.47 0.3 t0.66 0.08 q0.3 0 0.6 -0.06 l0.5 -0.08 q0.14 0.38 0.2 0.79 t0.06 0.73 l0 0.36 l-0.04 0.3 q-0.92 0.22 -1.9 0.22 q-1.82 0 -2.78 -0.85 t-0.96 -2.77 l0 -4.68 z M36.519999999999996 9.68 q0.46 -0.1 0.87 -0.12 t0.69 -0.02 q0.4 0 0.78 0.02 t0.72 0.1 l1.66 7.64 l1.92 -7.64 q0.62 -0.12 1.36 -0.12 l0.86 0.04 q0.34 0.02 0.6 0.08 l1.88 7.5 l1.64 -7.5 q0.34 -0.06 0.64 -0.09 t0.68 -0.03 q0.28 0 0.67 0.02 t0.87 0.12 l-3.22 10.32 q-0.36 0.06 -0.77 0.08 t-0.7 0.02 t-0.66 -0.02 t-0.71 -0.1 l-1.88 -6.84 l-1.94 6.86 q-0.38 0.06 -0.79 0.08 t-0.69 0.02 t-0.65 -0.02 t-0.71 -0.1 z M59.06 15.26 q-0.24 -0.04 -0.52 -0.07 t-0.5 -0.03 q-0.98 0 -1.55 0.35 t-0.57 1.13 q0 0.52 0.22 0.8 t0.53 0.41 t0.66 0.16 t0.63 0.03 t0.58 -0.06 l0.52 -0.08 l0 -2.64 z M59.06 13.2 q0 -0.48 -0.16 -0.78 t-0.44 -0.47 t-0.69 -0.23 t-0.91 -0.06 q-1.08 0 -2.3 0.42 q-0.28 -0.52 -0.42 -0.98 t-0.14 -1.1 q0.88 -0.3 1.76 -0.44 t1.64 -0.14 q2.08 0 3.25 1 t1.17 3.2 l0 6 q-0.7 0.22 -1.7 0.42 t-2.26 0.2 q-1.02 0 -1.87 -0.18 t-1.46 -0.6 t-0.94 -1.08 t-0.33 -1.62 t0.41 -1.61 t1.06 -1.04 t1.45 -0.56 t1.6 -0.17 q0.58 0 1.28 0.06 l0 -0.24 z M64.34 9.66 q0.3 -0.06 0.57 -0.09 t0.58 -0.03 t0.6 0.04 t0.57 0.1 q0.06 0.1 0.11 0.29 t0.09 0.39 l0.12 0.78 q0.44 -0.62 1.08 -1.11 t1.6 -0.49 q0.2 0 0.46 0.02 t0.38 0.06 q0.04 0.2 0.06 0.46 t0.02 0.54 q0 0.34 -0.03 0.74 t-0.11 0.76 q-0.22 -0.04 -0.48 -0.04 l-0.34 0 q-0.34 0 -0.76 0.07 t-0.8 0.37 t-0.63 0.9 t-0.25 1.68 l0 4.92 q-0.36 0.06 -0.72 0.08 t-0.7 0.02 t-0.69 -0.02 t-0.73 -0.08 l0 -10.36 z M74.64 15.7 q0.08 1.2 0.84 1.74 t2 0.54 q0.68 0 1.39 -0.13 t1.35 -0.37 q0.22 0.4 0.38 0.96 t0.18 1.2 q-1.56 0.6 -3.52 0.6 q-1.44 0 -2.47 -0.4 t-1.68 -1.11 t-0.96 -1.69 t-0.31 -2.13 t0.32 -2.15 t0.95 -1.74 t1.56 -1.17 t2.17 -0.43 q1.08 0 1.92 0.38 t1.43 1.04 t0.89 1.57 t0.3 1.95 q0 0.38 -0.03 0.75 t-0.07 0.59 l-6.64 0 z M78.7 13.719999999999999 q-0.04 -0.96 -0.53 -1.55 t-1.37 -0.59 q-1 0 -1.52 0.56 t-0.62 1.58 l4.04 0 z M90.28 15.7 q0.08 1.2 0.84 1.74 t2 0.54 q0.68 0 1.39 -0.13 t1.35 -0.37 q0.22 0.4 0.38 0.96 t0.18 1.2 q-1.56 0.6 -3.52 0.6 q-1.44 0 -2.47 -0.4 t-1.68 -1.11 t-0.96 -1.69 t-0.31 -2.13 t0.32 -2.15 t0.95 -1.74 t1.56 -1.17 t2.17 -0.43 q1.08 0 1.92 0.38 t1.43 1.04 t0.89 1.57 t0.3 1.95 q0 0.38 -0.03 0.75 t-0.07 0.59 l-6.64 0 z M94.34 13.719999999999999 q-0.04 -0.96 -0.53 -1.55 t-1.37 -0.59 q-1 0 -1.52 0.56 t-0.62 1.58 l4.04 0 z M99.26 9.66 q0.28 -0.06 0.56 -0.09 t0.62 -0.03 t0.6 0.03 t0.54 0.09 q0.06 0.1 0.11 0.29 t0.09 0.39 l0.12 0.76 q0.2 -0.3 0.48 -0.6 t0.65 -0.54 t0.83 -0.39 t1.02 -0.15 q1.76 0 2.65 0.96 t0.89 3.02 l0 6.6 q-0.72 0.12 -1.42 0.12 t-1.42 -0.12 l0 -5.84 q0 -1.08 -0.33 -1.66 t-1.15 -0.58 q-0.34 0 -0.7 0.1 t-0.65 0.39 t-0.47 0.81 t-0.18 1.36 l0 5.42 q-0.72 0.12 -1.42 0.12 t-1.42 -0.12 l0 -10.34 z M116.8 18.28 q1.82 0.04 2.68 0.81 t0.86 2.19 q0 0.84 -0.44 1.53 t-1.2 1.17 t-1.8 0.74 t-2.24 0.26 t-2.04 -0.19 t-1.37 -0.53 t-0.76 -0.84 t-0.23 -1.1 q0 -0.9 0.43 -1.48 t1.15 -1.02 q-0.46 -0.28 -0.73 -0.69 t-0.27 -1.05 q0 -0.76 0.32 -1.24 t0.94 -0.92 q-0.7 -0.5 -1.08 -1.22 t-0.38 -1.6 q0 -0.78 0.3 -1.45 t0.87 -1.16 t1.39 -0.77 t1.83 -0.28 t1.85 0.31 t1.4 0.79 q0.38 -0.5 0.94 -0.75 t1.52 -0.25 l0.08 0.5 q0.02 0.26 0.02 0.56 t-0.02 0.62 t-0.08 0.66 l-1.62 0 q0.1 0.2 0.18 0.48 t0.08 0.74 q0 0.78 -0.29 1.45 t-0.85 1.15 t-1.37 0.76 t-1.83 0.28 q-0.86 0 -1.54 -0.18 q-0.34 0.22 -0.42 0.47 t-0.08 0.47 q0 0.32 0.21 0.52 t0.85 0.22 z M114.24 20.36 q-0.44 -0.02 -0.73 0.1 t-0.46 0.31 t-0.24 0.42 t-0.07 0.45 q0 0.76 0.57 1.03 t1.53 0.27 q1.26 0 2.03 -0.4 t0.77 -1.08 q0 -0.2 -0.05 -0.38 t-0.19 -0.33 t-0.39 -0.25 t-0.67 -0.1 z M115.05999999999999 14.9 q0.84 0 1.21 -0.48 t0.37 -1.32 t-0.37 -1.33 t-1.22 -0.49 t-1.23 0.49 t-0.38 1.33 t0.38 1.32 t1.24 0.48 z M122.87999999999998 11.82 l-1.34 0 q-0.06 -0.26 -0.09 -0.55 t-0.03 -0.55 q0 -0.54 0.12 -1.06 l4.12 0 l0 10.34 q-0.72 0.12 -1.39 0.12 t-1.39 -0.12 l0 -8.18 z M122.46 7.92 q-0.12 -0.68 -0.12 -1.33 t0.12 -1.35 q0.34 -0.06 0.73 -0.09 t0.72 -0.03 t0.73 0.03 t0.74 0.09 q0.06 0.34 0.08 0.67 t0.02 0.66 t-0.02 0.67 t-0.08 0.68 q-0.34 0.06 -0.73 0.08 t-0.72 0.02 t-0.73 -0.02 t-0.74 -0.08 z M128.45999999999998 9.66 q0.28 -0.06 0.56 -0.09 t0.62 -0.03 t0.6 0.03 t0.54 0.09 q0.06 0.1 0.11 0.29 t0.09 0.39 l0.12 0.76 q0.2 -0.3 0.48 -0.6 t0.65 -0.54 t0.83 -0.39 t1.02 -0.15 q1.76 0 2.65 0.96 t0.89 3.02 l0 6.6 q-0.72 0.12 -1.42 0.12 t-1.42 -0.12 l0 -5.84 q0 -1.08 -0.33 -1.66 t-1.15 -0.58 q-0.34 0 -0.7 0.1 t-0.65 0.39 t-0.47 0.81 t-0.18 1.36 l0 5.42 q-0.72 0.12 -1.42 0.12 t-1.42 -0.12 l0 -10.34 z M142.45999999999998 15.7 q0.08 1.2 0.84 1.74 t2 0.54 q0.68 0 1.39 -0.13 t1.35 -0.37 q0.22 0.4 0.38 0.96 t0.18 1.2 q-1.56 0.6 -3.52 0.6 q-1.44 0 -2.47 -0.4 t-1.68 -1.11 t-0.96 -1.69 t-0.31 -2.13 t0.32 -2.15 t0.95 -1.74 t1.56 -1.17 t2.17 -0.43 q1.08 0 1.92 0.38 t1.43 1.04 t0.89 1.57 t0.3 1.95 q0 0.38 -0.03 0.75 t-0.07 0.59 l-6.64 0 z M146.51999999999998 13.719999999999999 q-0.04 -0.96 -0.53 -1.55 t-1.37 -0.59 q-1 0 -1.52 0.56 t-0.62 1.58 l4.04 0 z M153.7 15.7 q0.08 1.2 0.84 1.74 t2 0.54 q0.68 0 1.39 -0.13 t1.35 -0.37 q0.22 0.4 0.38 0.96 t0.18 1.2 q-1.56 0.6 -3.52 0.6 q-1.44 0 -2.47 -0.4 t-1.68 -1.11 t-0.96 -1.69 t-0.31 -2.13 t0.32 -2.15 t0.95 -1.74 t1.56 -1.17 t2.17 -0.43 q1.08 0 1.92 0.38 t1.43 1.04 t0.89 1.57 t0.3 1.95 q0 0.38 -0.03 0.75 t-0.07 0.59 l-6.64 0 z M157.76 13.719999999999999 q-0.04 -0.96 -0.53 -1.55 t-1.37 -0.59 q-1 0 -1.52 0.56 t-0.62 1.58 l4.04 0 z M162.68 9.66 q0.3 -0.06 0.57 -0.09 t0.58 -0.03 t0.6 0.04 t0.57 0.1 q0.06 0.1 0.11 0.29 t0.09 0.39 l0.12 0.78 q0.44 -0.62 1.08 -1.11 t1.6 -0.49 q0.2 0 0.46 0.02 t0.38 0.06 q0.04 0.2 0.06 0.46 t0.02 0.54 q0 0.34 -0.03 0.74 t-0.11 0.76 q-0.22 -0.04 -0.48 -0.04 l-0.34 0 q-0.34 0 -0.76 0.07 t-0.8 0.37 t-0.63 0.9 t-0.25 1.68 l0 4.92 q-0.36 0.06 -0.72 0.08 t-0.7 0.02 t-0.69 -0.02 t-0.73 -0.08 l0 -10.36 z"></path></g><g id="SvgjsG1010" featureKey="nameLeftFeature-0" transform="matrix(1,0,0,1,83,20.760000228881836)" fill="#3d84a8"><path d=""></path></g><g id="SvgjsG1011" featureKey="inlineSymbolFeature-0" transform="matrix(0.45,0,0,0.45,83.5,8.5)" fill="#ff004f"><path xmlns="http://www.w3.org/2000/svg" d="M50,10L10,90h80L50,10z M50,24.909L72.546,70H42.36l3.333-6.667h16.064L50,39.814L31.575,76.667h44.304l3.333,6.666H20.788  L50,24.909z"></path></g><g id="SvgjsG1012" featureKey="nameRightFeature-0" transform="matrix(1.1904758991358464,0,0,1.1904758991358464,126.09523987331525,0.8095270653272415)" fill="#ffffff"><path d="M2.44 19.32 q1.44 -0.24 2.84 -0.24 t2.84 0.24 l0 10.96 q0 1.64 0.26 2.7 t0.8 1.68 t1.34 0.88 t1.88 0.26 q1.48 0 2.48 -0.28 l0 -16.2 q1.44 -0.24 2.82 -0.24 t2.82 0.24 l0 19.88 q-1.28 0.44 -3.38 0.86 t-4.38 0.42 q-2.04 0 -3.92 -0.32 t-3.3 -1.36 t-2.26 -3.04 t-0.84 -5.32 l0 -11.12 z M38.08 10.760000000000002 q0.72 -0.12 1.42 -0.16 t1.38 -0.04 t1.4 0.04 t1.44 0.16 l0 28.56 q-1.88 0.56 -3.82 0.86 t-4.7 0.3 q-2.12 0 -4.06 -0.58 t-3.42 -1.84 t-2.34 -3.26 t-0.86 -4.88 q0 -2.28 0.74 -4.3 t2.12 -3.5 t3.34 -2.34 t4.36 -0.86 q0.72 0 1.5 0.06 t1.5 0.26 l0 -8.48 z M38.08 23.6 q-0.8 -0.2 -1.3 -0.26 t-1.26 -0.06 q-1.32 0 -2.3 0.54 t-1.62 1.44 t-0.94 2.12 t-0.3 2.54 q0 1.64 0.4 2.78 t1.1 1.82 t1.66 0.98 t2.08 0.3 q0.68 0 1.24 -0.06 t1.24 -0.26 l0 -11.88 z M59.519999999999996 30.52 q-0.48 -0.08 -1.04 -0.14 t-1 -0.06 q-1.96 0 -3.1 0.7 t-1.14 2.26 q0 1.04 0.44 1.6 t1.06 0.82 t1.32 0.32 t1.26 0.06 t1.16 -0.12 l1.04 -0.16 l0 -5.28 z M59.519999999999996 26.4 q0 -0.96 -0.32 -1.56 t-0.88 -0.94 t-1.38 -0.46 t-1.82 -0.12 q-2.16 0 -4.6 0.84 q-0.56 -1.04 -0.84 -1.96 t-0.28 -2.2 q1.76 -0.6 3.52 -0.88 t3.28 -0.28 q4.16 0 6.5 2 t2.34 6.4 l0 12 q-1.4 0.44 -3.4 0.84 t-4.52 0.4 q-2.04 0 -3.74 -0.36 t-2.92 -1.2 t-1.88 -2.16 t-0.66 -3.24 t0.82 -3.22 t2.12 -2.08 t2.9 -1.12 t3.2 -0.34 q1.16 0 2.56 0.12 l0 -0.48 z M71.2 23.64 l-2.68 0 q-0.12 -0.52 -0.18 -1.1 t-0.06 -1.1 q0 -1.08 0.24 -2.12 l8.24 0 l0 20.68 q-1.44 0.24 -2.78 0.24 t-2.78 -0.24 l0 -16.36 z M70.36 15.84 q-0.24 -1.36 -0.24 -2.66 t0.24 -2.7 q0.68 -0.12 1.46 -0.18 t1.44 -0.06 t1.46 0.06 t1.48 0.18 q0.12 0.68 0.16 1.34 t0.04 1.32 t-0.04 1.34 t-0.16 1.36 q-0.68 0.12 -1.46 0.16 t-1.44 0.04 t-1.46 -0.04 t-1.48 -0.16 z M101.48 30.52 q-0.48 -0.08 -1.04 -0.14 t-1 -0.06 q-1.96 0 -3.1 0.7 t-1.14 2.26 q0 1.04 0.44 1.6 t1.06 0.82 t1.32 0.32 t1.26 0.06 t1.16 -0.12 l1.04 -0.16 l0 -5.28 z M101.48 26.4 q0 -0.96 -0.32 -1.56 t-0.88 -0.94 t-1.38 -0.46 t-1.82 -0.12 q-2.16 0 -4.6 0.84 q-0.56 -1.04 -0.84 -1.96 t-0.28 -2.2 q1.76 -0.6 3.52 -0.88 t3.28 -0.28 q4.16 0 6.5 2 t2.34 6.4 l0 12 q-1.4 0.44 -3.4 0.84 t-4.52 0.4 q-2.04 0 -3.74 -0.36 t-2.92 -1.2 t-1.88 -2.16 t-0.66 -3.24 t0.82 -3.22 t2.12 -2.08 t2.9 -1.12 t3.2 -0.34 q1.16 0 2.56 0.12 l0 -0.48 z M111.88 10.760000000000002 q1.44 -0.24 2.82 -0.24 t2.82 0.24 l0 21 q0 1.24 0.14 2 t0.44 1.18 t0.78 0.58 t1.2 0.16 q0.32 0 0.7 -0.04 t0.74 -0.12 q0.44 1.64 0.44 3.2 l0 0.56 l-0.08 0.6 q-0.64 0.2 -1.54 0.28 t-1.66 0.08 q-3.08 0 -4.94 -1.7 t-1.86 -5.54 l0 -22.24 z M129 31 q-2.24 -0.64 -3.5 -1.9 t-1.26 -3.78 q0 -3.04 2.18 -4.76 t5.94 -1.72 q1.56 0 3.08 0.28 t3.08 0.84 q-0.08 1.04 -0.4 2.16 t-0.76 1.96 q-0.96 -0.4 -2.12 -0.7 t-2.48 -0.3 t-2.08 0.42 t-0.76 1.32 t0.54 1.26 t1.54 0.68 l2.28 0.68 q1.12 0.32 2.02 0.78 t1.54 1.14 t1 1.68 t0.36 2.46 t-0.62 2.74 t-1.8 2.22 t-2.86 1.48 t-3.8 0.54 q-0.96 0 -1.76 -0.06 t-1.54 -0.2 t-1.46 -0.34 t-1.56 -0.52 q0.08 -1.08 0.38 -2.18 t0.78 -2.14 q1.32 0.52 2.5 0.78 t2.46 0.26 q0.56 0 1.22 -0.1 t1.22 -0.36 t0.94 -0.68 t0.38 -1.1 q0 -0.96 -0.58 -1.38 t-1.62 -0.74 z M143.32 10.760000000000002 q0.68 -0.12 1.4 -0.16 t1.4 -0.04 t1.4 0.04 t1.44 0.16 l0 11 q0.28 -0.36 0.74 -0.86 t1.14 -0.96 t1.64 -0.78 t2.2 -0.32 q3.44 0 5.22 1.92 t1.78 6.04 l0 13.24 q-0.72 0.12 -1.44 0.16 t-1.4 0.04 t-1.4 -0.04 t-1.44 -0.16 l0 -11.72 q0 -2.16 -0.68 -3.32 t-2.32 -1.16 q-0.68 0 -1.4 0.2 t-1.3 0.78 t-0.96 1.62 t-0.38 2.72 l0 10.88 q-0.72 0.12 -1.44 0.16 t-1.4 0.04 t-1.38 -0.04 t-1.42 -0.16 l0 -29.28 z  M177.16 30.52 q-0.48 -0.08 -1.04 -0.14 t-1 -0.06 q-1.96 0 -3.1 0.7 t-1.14 2.26 q0 1.04 0.44 1.6 t1.06 0.82 t1.32 0.32 t1.26 0.06 t1.16 -0.12 l1.04 -0.16 l0 -5.28 z M177.16 26.4 q0 -0.96 -0.32 -1.56 t-0.88 -0.94 t-1.38 -0.46 t-1.82 -0.12 q-2.16 0 -4.6 0.84 q-0.56 -1.04 -0.84 -1.96 t-0.28 -2.2 q1.76 -0.6 3.52 -0.88 t3.28 -0.28 q4.16 0 6.5 2 t2.34 6.4 l0 12 q-1.4 0.44 -3.4 0.84 t-4.52 0.4 q-2.04 0 -3.74 -0.36 t-2.92 -1.2 t-1.88 -2.16 t-0.66 -3.24 t0.82 -3.22 t2.12 -2.08 t2.9 -1.12 t3.2 -0.34 q1.16 0 2.56 0.12 l0 -0.48 z M187.72 19.32 q0.6 -0.12 1.14 -0.18 t1.16 -0.06 t1.2 0.08 t1.14 0.2 q0.12 0.2 0.22 0.58 t0.18 0.78 l0.24 1.56 q0.88 -1.24 2.16 -2.22 t3.2 -0.98 q0.4 0 0.92 0.04 t0.76 0.12 q0.08 0.4 0.12 0.92 t0.04 1.08 q0 0.68 -0.06 1.48 t-0.22 1.52 q-0.44 -0.08 -0.96 -0.08 l-0.68 0 q-0.68 0 -1.52 0.14 t-1.6 0.74 t-1.26 1.8 t-0.5 3.36 l0 9.84 q-0.72 0.12 -1.44 0.16 t-1.4 0.04 t-1.38 -0.04 t-1.46 -0.16 l0 -20.72 z M214.12 30.52 q-0.48 -0.08 -1.04 -0.14 t-1 -0.06 q-1.96 0 -3.1 0.7 t-1.14 2.26 q0 1.04 0.44 1.6 t1.06 0.82 t1.32 0.32 t1.26 0.06 t1.16 -0.12 l1.04 -0.16 l0 -5.28 z M214.12 26.4 q0 -0.96 -0.32 -1.56 t-0.88 -0.94 t-1.38 -0.46 t-1.82 -0.12 q-2.16 0 -4.6 0.84 q-0.56 -1.04 -0.84 -1.96 t-0.28 -2.2 q1.76 -0.6 3.52 -0.88 t3.28 -0.28 q4.16 0 6.5 2 t2.34 6.4 l0 12 q-1.4 0.44 -3.4 0.84 t-4.52 0.4 q-2.04 0 -3.74 -0.36 t-2.92 -1.2 t-1.88 -2.16 t-0.66 -3.24 t0.82 -3.22 t2.12 -2.08 t2.9 -1.12 t3.2 -0.34 q1.16 0 2.56 0.12 l0 -0.48 z M224.68 19.32 q0.56 -0.12 1.12 -0.18 t1.24 -0.06 t1.2 0.06 t1.08 0.18 q0.12 0.2 0.22 0.58 t0.18 0.78 l0.24 1.52 q0.4 -0.6 0.96 -1.2 t1.3 -1.08 t1.66 -0.78 t2.04 -0.3 q3.52 0 5.3 1.92 t1.78 6.04 l0 13.2 q-1.44 0.24 -2.84 0.24 t-2.84 -0.24 l0 -11.68 q0 -2.16 -0.66 -3.32 t-2.3 -1.16 q-0.68 0 -1.4 0.2 t-1.3 0.78 t-0.94 1.62 t-0.36 2.72 l0 10.84 q-1.44 0.24 -2.84 0.24 t-2.84 -0.24 l0 -20.68 z M249.27999999999997 23.64 l-2.68 0 q-0.12 -0.52 -0.18 -1.1 t-0.06 -1.1 q0 -1.08 0.24 -2.12 l8.24 0 l0 20.68 q-1.44 0.24 -2.78 0.24 t-2.78 -0.24 l0 -16.36 z M248.44 15.84 q-0.24 -1.36 -0.24 -2.66 t0.24 -2.7 q0.68 -0.12 1.46 -0.18 t1.44 -0.06 t1.46 0.06 t1.48 0.18 q0.12 0.68 0.16 1.34 t0.04 1.32 t-0.04 1.34 t-0.16 1.36 q-0.68 0.12 -1.46 0.16 t-1.44 0.04 t-1.46 -0.04 t-1.48 -0.16 z"></path></g>
			</g>
		</svg>
	