
        <svg xmlns="http://www.w3.org/2000/svg" xmlns:xlink="http://www.w3.org/1999/xlink" version="1.1" width="3218.181818181818" 
        height="893.5575302629237" viewBox="0 0 3218.181818181818 893.5575302629237">
			
			<g transform="scale(10.909090909090908) translate(10, 10)">
				<defs id="SvgjsDefs4619"></defs><g id="SvgjsG4620" featureKey="PG4fjM-0" transform="matrix(0.7137851297801047,0,0,0.7137851297801047,-6.76311437695391,-3.2584294986485633)" fill="#ff004f"><path xmlns="http://www.w3.org/2000/svg" d="M47.743,91.205l0.258,0.094l0.258-0.094c35.183-12.865,38.155-34.771,38.27-35.786V13.685l-6.317-3.009l-0.353,0.23  c-2.542,1.661-5.564,2.502-8.981,2.502c-10.842,0-22.314-8.426-22.429-8.511l-0.447-0.332l-0.447,0.332  c-0.114,0.085-11.577,8.51-22.43,8.511c0,0-0.001,0-0.002,0c-3.416,0-6.438-0.842-8.98-2.502l-0.353-0.23l-6.315,3.009l0.005,41.822  C9.588,56.433,12.561,78.339,47.743,91.205z M57.204,35.549l-0.53-0.53l0.53-0.53l0.53-0.53L71.776,48L57.734,62.042l-0.53-0.53  l-0.53-0.53l0.53-0.53L69.655,48L57.204,35.549z M51.454,34.269l1.434,0.442l-8.342,27.02l-1.434-0.442L51.454,34.269z   M38.268,33.958l0.53,0.53l0.53,0.53l-0.53,0.53L26.345,48l12.453,12.451l0.53,0.53l-0.53,0.53l-0.53,0.53L24.224,48L38.268,33.958z  "></path></g><g id="SvgjsG4621" featureKey="jxYttZ-0" transform="matrix(1.3848497613608617,0,0,1.3848497613608617,74.99999933965218,3.601994260996297)" fill="#ff004f"><path d="M7.52 5 l6.16 15 l-2.4 0 l-1.5 -3.92 l-5.9 0 l-1.48 3.92 l-2.4 0 l6.16 -15 l1.36 0 z M4.58 14.24 l4.5 0 l-2.24 -5.92 z M14.940000000000001 15.82 l0 -5.7 l2.06 0 l0 5.5 c0 2 0.62 2.88 2.32 2.88 c1.92 0 2.7 -1.34 2.7 -3.08 l0 -5.3 l2.06 0 l0 9.88 l-2.06 0 l0 -1.6 c-0.28 0.88 -1.52 1.68 -2.7 1.76 c-2.68 0.2 -4.38 -1.1 -4.38 -4.34 z M26.48 15.08 c0 -2.94 2.1 -5.14 4.94 -5.14 c0.98 0 2.18 0.42 2.84 0.96 l0 -5.9 l2.08 0 l0 15 l-2.08 0 l0 -0.74 c-0.78 0.58 -1.86 0.94 -2.84 0.94 c-2.84 0 -4.94 -2.18 -4.94 -5.12 z M28.56 15.08 c0 2 1.38 3.44 3.06 3.44 c1.12 0 2.12 -0.52 2.64 -1.58 c0.28 -0.54 0.44 -1.18 0.44 -1.86 s-0.16 -1.32 -0.44 -1.88 c-0.52 -1.06 -1.52 -1.56 -2.64 -1.56 c-1.68 0 -3.06 1.42 -3.06 3.44 z M43.36 9.92 c2.84 0 3.98 1.72 3.98 3.18 l0 6.9 l-2.06 0 l0 -1.08 c-0.72 0.98 -2 1.26 -2.8 1.26 c-2.26 0 -3.74 -1.32 -3.74 -3.08 c0 -2.46 1.84 -3.34 3.74 -3.34 l2.8 0 l0 -0.66 c0 -0.62 -0.24 -1.48 -1.92 -1.48 c-0.94 0 -1.8 0.5 -2.36 1.28 l-1.42 -1.28 c0.94 -1.04 2.28 -1.7 3.78 -1.7 z M45.28 16.92 l0 -1.48 l-2.52 0 c-1.22 0 -2.08 0.62 -1.94 1.74 c0.12 0.94 0.88 1.32 1.94 1.32 c1.9 0 2.52 -0.9 2.52 -1.58 z M52.18 10.12 l0 9.88 l-2.06 0 l0 -9.88 l2.06 0 z M52.28 6.5 c0 0.64 -0.5 1.14 -1.14 1.14 c-0.62 0 -1.12 -0.5 -1.12 -1.14 c0 -0.62 0.5 -1.12 1.12 -1.12 c0.64 0 1.14 0.5 1.14 1.12 z M67.39999999999999 5 l6.16 15 l-2.4 0 l-1.5 -3.92 l-5.9 0 l-1.48 3.92 l-2.4 0 l6.16 -15 l1.36 0 z M64.46 14.24 l4.5 0 l-2.24 -5.92 z M77.24 4.619999999999999 l0 15.38 l-2.08 0 l0 -15.38 l2.08 0 z M87.17999999999999 16.16 c0.04 0.12 0.38 1.1 -0.04 2.1 c-0.52 1.18 -1.9 1.94 -3.62 1.94 l-0.02 0 c-1.38 0 -2.64 -0.58 -3.58 -1.5 l1.34 -1.34 c0.56 0.72 1.36 1.08 2.24 1.08 c0.98 0 1.8 -0.36 2.02 -0.88 c0.14 -0.36 0.02 -0.74 0.02 -0.78 c-0.24 -0.6 -1.12 -0.72 -2.12 -0.94 c-1.34 -0.3 -2.68 -0.64 -3.2 -2.04 c-0.26 -0.72 -0.18 -1.56 0.18 -2.26 c0.82 -1.54 2.86 -1.6 3.1 -1.6 c1.38 0 2.68 0.52 3.6 1.46 l-1.34 1.34 c-0.56 -0.72 -1.38 -1.04 -2.26 -1.04 c-0.02 0 -1.2 0.02 -1.54 0.68 c-0.12 0.2 -0.18 0.54 -0.08 0.82 c0.2 0.56 1.1 0.74 2.06 0.96 c1.3 0.3 2.72 0.6 3.24 2 z M98.97999999999999 14.3 l0 5.7 l-2.06 0 l0 -5.5 c0 -2 -0.62 -2.88 -2.32 -2.88 c-1.92 0 -2.7 1.34 -2.7 3.08 l0 5.3 l-2.06 0 l0 -15 l2.06 0 l0 6.72 c0.28 -0.88 1.52 -1.68 2.7 -1.76 c2.68 -0.2 4.38 1.1 4.38 4.34 z M105.8 9.92 c2.84 0 3.98 1.72 3.98 3.18 l0 6.9 l-2.06 0 l0 -1.08 c-0.72 0.98 -2 1.26 -2.8 1.26 c-2.26 0 -3.74 -1.32 -3.74 -3.08 c0 -2.46 1.84 -3.34 3.74 -3.34 l2.8 0 l0 -0.66 c0 -0.62 -0.24 -1.48 -1.92 -1.48 c-0.94 0 -1.8 0.5 -2.36 1.28 l-1.42 -1.28 c0.94 -1.04 2.28 -1.7 3.78 -1.7 z M107.72 16.92 l0 -1.48 l-2.52 0 c-1.22 0 -2.08 0.62 -1.94 1.74 c0.12 0.94 0.88 1.32 1.94 1.32 c1.9 0 2.52 -0.9 2.52 -1.58 z M118.2 10.24 l-0.44 1.62 c-0.14 -0.08 -0.58 -0.22 -0.94 -0.22 c-1.7 0 -2.5 1.62 -2.5 3.62 l0 4.74 l-2.06 0 l0 -9.88 l2.06 0 l0 1.4 c0.24 -0.92 1.3 -1.58 2.48 -1.58 c0.54 0 1.12 0.14 1.4 0.3 z M123.62 9.92 c2.84 0 3.98 1.72 3.98 3.18 l0 6.9 l-2.06 0 l0 -1.08 c-0.72 0.98 -2 1.26 -2.8 1.26 c-2.26 0 -3.74 -1.32 -3.74 -3.08 c0 -2.46 1.84 -3.34 3.74 -3.34 l2.8 0 l0 -0.66 c0 -0.62 -0.24 -1.48 -1.92 -1.48 c-0.94 0 -1.8 0.5 -2.36 1.28 l-1.42 -1.28 c0.94 -1.04 2.28 -1.7 3.78 -1.7 z M125.54 16.92 l0 -1.48 l-2.52 0 c-1.22 0 -2.08 0.62 -1.94 1.74 c0.12 0.94 0.88 1.32 1.94 1.32 c1.9 0 2.52 -0.9 2.52 -1.58 z M139.22 14.3 l0 5.7 l-2.06 0 l0 -5.5 c0 -2 -0.62 -2.88 -2.32 -2.88 c-1.92 0 -2.7 1.34 -2.7 3.08 l0 5.3 l-2.06 0 l0 -9.88 l2.06 0 l0 1.6 c0.28 -0.88 1.52 -1.68 2.7 -1.76 c2.68 -0.2 4.38 1.1 4.38 4.34 z M144.32 10.12 l0 9.88 l-2.06 0 l0 -9.88 l2.06 0 z M144.42 6.5 c0 0.64 -0.5 1.14 -1.14 1.14 c-0.62 0 -1.12 -0.5 -1.12 -1.14 c0 -0.62 0.5 -1.12 1.12 -1.12 c0.64 0 1.14 0.5 1.14 1.12 z"></path></g><g id="SvgjsG4622" featureKey="sloganFeature-0" transform="matrix(0.7007094795746464,0,0,0.7007094795746464,74.29929085454967,38.62258018816545)" fill="#ff004f"><path d="M11.9 14.5 c0.06 0.14 0.54 1.5 -0.08 2.92 c-0.72 1.7 -2.74 2.76 -5.26 2.78 c-2.18 0 -4.16 -0.96 -5.56 -2.48 l1.48 -1.48 c0.7 1.24 2.48 2.12 4.08 2.12 c1.74 -0.02 2.76 -0.66 3.18 -1.66 c0.32 -0.74 0.06 -1.54 0.04 -1.56 c-0.42 -1.16 -1.58 -1.42 -3.22 -1.92 c-1.86 -0.56 -4 -1.02 -4.7 -2.98 c-0.38 -1.02 -0.28 -2.2 0.24 -3.16 c1.16 -2.2 4.12 -2.26 4.46 -2.26 c2.2 0 4.16 0.96 5.56 2.5 l-1.46 1.46 c-0.82 -1.2 -2.42 -2.12 -4.1 -2.12 c-0.02 0 -1.78 0 -2.46 1.28 c-0.26 0.5 -0.32 1.16 -0.14 1.68 c0.4 1.1 1.54 1.36 3.14 1.84 c1.9 0.58 4.04 1.02 4.8 3.04 z M21.76 6.66 c-3.16 0 -5.4 2.8 -5.4 5.84 c0 3.06 2.24 5.86 5.4 5.86 c3.18 0 5.4 -2.8 5.4 -5.86 c0 -3.04 -2.24 -5.84 -5.4 -5.84 z M21.76 4.82 c4.2 0 7.62 3.32 7.62 7.68 s-3.42 7.7 -7.62 7.7 s-7.62 -3.34 -7.62 -7.7 s3.42 -7.68 7.62 -7.68 z M41.94 6.84 l-7.74 0 l0 4.68 l6.34 0 l0 1.84 l-6.34 0 l0 6.64 l-2.22 0 l0 -15 l9.96 0 l0 1.84 z M54.44 5 l0 1.84 l-4.64 0 l0 13.16 l-2.22 0 l0 -13.16 l-4.64 0 l0 -1.84 l11.5 0 z M60.92 20 l-1.14 0 l-5.34 -15 l2.36 0 l3.58 10.58 l3.78 -10.58 l1.14 0 l3.78 10.58 l3.58 -10.58 l2.38 0 l-5.34 15 l-1.14 0 l-3.82 -10.54 z M80.51999999999998 5 l6.16 15 l-2.4 0 l-1.5 -3.92 l-5.9 0 l-1.48 3.92 l-2.4 0 l6.16 -15 l1.36 0 z M77.57999999999998 14.24 l4.5 0 l-2.24 -5.92 z M99.59999999999998 10.32 c0 2.28 -1.32 4.12 -3.22 4.92 l3.22 4.76 l-2.46 0 l-2.94 -4.36 l-3.5 0 l0 4.36 l-2.22 0 l0 -4.36 l0 -1.84 l0 -6.96 l0 -1.84 l2.22 0 l3.6 0 c2.94 0.02 5.3 2.3 5.3 5.32 z M90.69999999999997 6.84 l0 6.96 l3.58 0 c1.7 0 3.1 -1.44 3.1 -3.48 c0 -2.02 -1.4 -3.48 -3.1 -3.48 l-3.58 0 z M104.81999999999998 18.16 l8.14 0 l0 1.84 l-10.36 0 l0 -15 l9.98 0 l0 1.84 l-7.76 0 l0 4.44 l6.34 0 l0 1.86 l-6.34 0 l0 5.02 z M123.97999999999998 18.16 l8.14 0 l0 1.84 l-10.36 0 l0 -15 l9.98 0 l0 1.84 l-7.76 0 l0 4.44 l6.34 0 l0 1.86 l-6.34 0 l0 5.02 z M148.07999999999998 5 l0 15 l-2.68 0 l-8.04 -11.94 l0 11.94 l-2.24 0 l0 -15 l2.68 0 l8.06 11.94 l0 -11.94 l2.22 0 z M159.81999999999996 11.6 l6.1 0 l0 8.4 l-2.22 0 l0 -1.92 c-1.38 1.42 -3.3 2.12 -5.4 2.12 c-4.2 0 -7.62 -3.34 -7.62 -7.7 c0 -4.34 3.42 -7.68 7.62 -7.68 c2.2 0 4.18 0.76 5.56 2.3 l-1.46 1.46 c-1.08 -1.2 -2.34 -1.92 -4.1 -1.92 c-3.22 0 -5.38 2.58 -5.38 5.84 c0 2.82 2.06 5.86 5.38 5.86 c1.42 0 2.78 -0.42 3.78 -1.54 c0.84 -0.94 1.38 -2.1 1.56 -3.38 l-3.82 0 l0 -1.84 z M171.33999999999997 5 l0 15 l-2.22 0 l0 -15 l2.22 0 z M188.49999999999997 5 l0 15 l-2.68 0 l-8.04 -11.94 l0 11.94 l-2.24 0 l0 -15 l2.68 0 l8.06 11.94 l0 -11.94 l2.22 0 z M194.31999999999996 18.16 l8.14 0 l0 1.84 l-10.36 0 l0 -15 l9.98 0 l0 1.84 l-7.76 0 l0 4.44 l6.34 0 l0 1.86 l-6.34 0 l0 5.02 z M207.47999999999996 18.16 l8.14 0 l0 1.84 l-10.36 0 l0 -15 l9.98 0 l0 1.84 l-7.76 0 l0 4.44 l6.34 0 l0 1.86 l-6.34 0 l0 5.02 z M229.33999999999995 10.32 c0 2.28 -1.32 4.12 -3.22 4.92 l3.22 4.76 l-2.46 0 l-2.94 -4.36 l-3.5 0 l0 4.36 l-2.22 0 l0 -4.36 l0 -1.84 l0 -6.96 l0 -1.84 l2.22 0 l3.6 0 c2.94 0.02 5.3 2.3 5.3 5.32 z M220.43999999999994 6.84 l0 6.96 l3.58 0 c1.7 0 3.1 -1.44 3.1 -3.48 c0 -2.02 -1.4 -3.48 -3.1 -3.48 l-3.58 0 z"></path></g>
			</g>
		</svg>
	